<svg fill="none" xmlns="http://www.w3.org/2000/svg" id="add" viewBox="0 0 27 27">
    <path fill="#000" d="M22.3 4.7C20 2.3 16.8 1 13.5 1S7 2.3 4.7 4.7c-.4.3-.4.9 0 1.2s.9.3 1.3 0c2-2 4.7-3.1 7.6-3.1s5.5 1.1 7.6 3.1c2 2 3.1 4.7 3.1 7.6s-1.1 5.5-3.1 7.6c-2 2-4.7 3.1-7.6 3.1S8 23.1 6 21.1c-3.3-3.3-4.1-8.3-2-12.5.2-.4.1-1-.4-1.2-.4-.2-1-.1-1.2.4C-.1 12.6.8 18.5 4.7 22.4 7 24.7 10.2 26 13.5 26s6.5-1.3 8.8-3.7c2.4-2.4 3.7-5.5 3.7-8.8S24.7 7 22.3 4.7z"/>
    <path fill="#000" d="M13.5 8.1c-.5 0-.9.4-.9.9v3.6H9c-.5 0-.9.4-.9.9s.4.9.9.9h3.6V18c0 .5.4.9.9.9s.9-.4.9-.9v-3.6H18c.5 0 .9-.4.9-.9s-.4-.9-.9-.9h-3.6V9c0-.5-.4-.9-.9-.9z"/>
</svg>