<svg id="Groupe_438" data-name="Groupe 438" xmlns="http://www.w3.org/2000/svg" xmlns:xlink="http://www.w3.org/1999/xlink" width="32.862" height="32.961" viewBox="0 0 32.862 32.961">
  <defs>
    <clipPath id="clip-path">
      <rect id="Rectangle_761" data-name="Rectangle 761" width="32.862" height="32.961" fill="#af120e"/>
    </clipPath>
  </defs>
  <g id="Groupe_159" data-name="Groupe 159" clip-path="url(#clip-path)">
    <path id="Tracé_245" data-name="Tracé 245" d="M16.4,32.941h-.059a20.659,20.659,0,0,1-3.354-.4,1.236,1.236,0,0,1,.5-2.421,18.146,18.146,0,0,0,2.945.353,1.236,1.236,0,0,1-.033,2.471m4.706-.744a1.236,1.236,0,0,1-.382-2.412A13.958,13.958,0,0,0,23.4,28.594a1.236,1.236,0,0,1,1.239,2.139,16.424,16.424,0,0,1-3.145,1.4,1.233,1.233,0,0,1-.383.061M8.76,30.932a1.23,1.23,0,0,1-.6-.154,15.519,15.519,0,0,1-2.823-2,1.236,1.236,0,1,1,1.645-1.845,13.053,13.053,0,0,0,2.373,1.678,1.236,1.236,0,0,1-.6,2.318M27.715,27.9a1.236,1.236,0,0,1-.918-2.063,14.073,14.073,0,0,0,1.722-2.367,1.236,1.236,0,1,1,2.14,1.237,16.536,16.536,0,0,1-2.025,2.784,1.233,1.233,0,0,1-.919.409M3.191,25.372a1.236,1.236,0,0,1-1.081-.634A16.485,16.485,0,0,1,.761,21.569a1.236,1.236,0,1,1,2.363-.727,14,14,0,0,0,1.146,2.692,1.236,1.236,0,0,1-1.078,1.838m28.107-4.5a1.237,1.237,0,0,1-1.21-1.492,14.119,14.119,0,0,0,.3-2.911v-.037a1.236,1.236,0,1,1,2.472,0v.037a16.586,16.586,0,0,1-.356,3.422,1.236,1.236,0,0,1-1.208.981M1.236,17.726A1.236,1.236,0,0,1,0,16.49v-.017a17.5,17.5,0,0,1,.332-3.394,1.236,1.236,0,0,1,2.425.48,15.042,15.042,0,0,0-.285,2.914v.017a1.236,1.236,0,0,1-1.236,1.236m29.637-4.762a1.237,1.237,0,0,1-1.175-.852,13.96,13.96,0,0,0-1.2-2.669A1.236,1.236,0,1,1,30.638,8.2a16.441,16.441,0,0,1,1.41,3.142,1.237,1.237,0,0,1-1.175,1.621M3.17,10.076A1.236,1.236,0,0,1,2.09,8.241a15.691,15.691,0,0,1,2-2.822A1.236,1.236,0,0,1,5.933,7.061a13.211,13.211,0,0,0-1.68,2.377,1.236,1.236,0,0,1-1.083.638M26.56,6.363a1.232,1.232,0,0,1-.825-.316,14.06,14.06,0,0,0-2.37-1.717A1.236,1.236,0,1,1,24.6,2.188a16.551,16.551,0,0,1,2.788,2.019,1.236,1.236,0,0,1-.826,2.156M8.728,4.5a1.236,1.236,0,0,1-.6-2.316A16.647,16.647,0,0,1,11.291.839,1.236,1.236,0,1,1,12.021,3.2,14.188,14.188,0,0,0,9.327,4.345a1.23,1.23,0,0,1-.6.156M19.53,2.8a1.236,1.236,0,0,1-.255-.027,14.111,14.111,0,0,0-2.86-.3h0A1.236,1.236,0,1,1,16.31,0h.08a16.588,16.588,0,0,1,3.392.35A1.236,1.236,0,0,1,19.53,2.8" transform="translate(0 0)" fill="#af120e"/>
    <path id="Tracé_246" data-name="Tracé 246" d="M58.689,95.918H41.107a.989.989,0,1,1,0-1.978H58.689a.989.989,0,0,1,0,1.978" transform="translate(-33.507 -78.459)" fill="#af120e"/>
    <path id="Tracé_247" data-name="Tracé 247" d="M94.457,60.16a.989.989,0,0,1-.989-.989V41.589a.989.989,0,0,1,1.978,0V59.171a.989.989,0,0,1-.989.989" transform="translate(-78.065 -33.909)" fill="#af120e"/>
    <path id="Tracé_248" data-name="Tracé 248" d="M50.64,45.789A16.356,16.356,0,0,1,41.6,43.061,1.236,1.236,0,1,1,42.963,41a14,14,0,1,0,15.42-23.37,1.236,1.236,0,1,1,1.362-2.063,16.481,16.481,0,0,1-9.1,30.225" transform="translate(-34.282 -12.829)" fill="#af120e"/>
  </g>
</svg>
