<svg xmlns="http://www.w3.org/2000/svg" xmlns:xlink="http://www.w3.org/1999/xlink" id="Groupe_411" fill="none" data-name="Groupe 411" width="176.96" height="63" viewBox="0 0 176.96 63" style="fill: red;">
  <defs>
    <clipPath id="clip-path">
      <rect id="Rectangle_908" data-name="Rectangle 908" width="176.96" height="63" fill="#fff"></rect>
    </clipPath>
    <clipPath id="clip-path-2">
      <path id="Tracé_376" data-name="Tracé 376" d="M40.586,51.476a2.1,2.1,0,0,0,.029,2.485c.119.2.559.721,2.07,1.278a18.124,18.124,0,0,0,3.761.88c-1.339-2.658-2.57-4.429-3.438-4.924a2.615,2.615,0,0,0-.392-.184,2.094,2.094,0,0,0-.726-.135,1.661,1.661,0,0,0-1.3.6" transform="translate(-40.196 -50.877)" fill="#fff"></path>
    </clipPath>
    <clipPath id="clip-path-3">
      <path id="Tracé_377" data-name="Tracé 377" d="M.536,0V18.757c0-.053,0-.108,0-.16l15.339.051a19.382,19.382,0,0,1-3.938-.937A5.264,5.264,0,0,1,9.16,15.846a3.467,3.467,0,0,1,.093-4.082,3.153,3.153,0,0,1,3.576-.88,3.992,3.992,0,0,1,.6.281c1.5.854,3.137,3.734,4.321,6.179L17.7,1.007l0-1.007Z" transform="translate(-0.536)" fill="#fff"></path>
    </clipPath>
    <clipPath id="clip-path-4">
      <path id="Tracé_378" data-name="Tracé 378" d="M80.348,0l.012,1.1.051,15.613c1.151-2.289,2.642-4.768,4.01-5.549a3.99,3.99,0,0,1,.6-.281,3.153,3.153,0,0,1,3.576.88,3.467,3.467,0,0,1,.093,4.082,5.262,5.262,0,0,1-2.778,1.866,19.5,19.5,0,0,1-4.038.95l17.1.041c0-.562-.024-1.136-.079-1.727-.062-.666-.155-1.376-.284-2.108A16.8,16.8,0,0,0,81.708,0Z" transform="translate(-80.348 0)" fill="#fff"></path>
    </clipPath>
    <clipPath id="clip-path-5">
      <path id="Tracé_379" data-name="Tracé 379" d="M89.763,51.012a2.621,2.621,0,0,0-.392.184c-.868.5-2.1,2.266-3.438,4.924a18.124,18.124,0,0,0,3.761-.88c1.51-.558,1.95-1.08,2.069-1.278a2.1,2.1,0,0,0,.029-2.485,1.661,1.661,0,0,0-1.3-.6,2.1,2.1,0,0,0-.727.135" transform="translate(-85.933 -50.877)" fill="#fff"></path>
    </clipPath>
    <clipPath id="clip-path-6">
      <path id="Tracé_380" data-name="Tracé 380" d="M.127,100.24h0l0,6.708a11.47,11.47,0,0,0-.129,1.7v6.207H12.26c0-6.622,1.261-9.84,5.131-11.687l0-.506v-.065L17.348,86.1c-2.158.916-2.629,2.93-3.093,5.886a.693.693,0,0,1-.683.585.735.735,0,0,1-.108-.008.692.692,0,0,1-.577-.792c.376-2.39.812-4.416,2.17-5.784L.127,85.941Z" transform="translate(0 -85.941)" fill="#fff"></path>
    </clipPath>
    <clipPath id="clip-path-7">
      <path id="Tracé_381" data-name="Tracé 381" d="M158.715,84.782c0-.041.007-.083.01-.124Z" transform="translate(-158.715 -84.658)" fill="#fff"></path>
    </clipPath>
    <clipPath id="clip-path-8">
      <path id="Tracé_382" data-name="Tracé 382" d="M84.908,90.3a.693.693,0,0,1-.635.746l-.057,0a.693.693,0,0,1-.69-.637,4.207,4.207,0,0,0-2.87-3.777l.039,20.043,3.956,8.38H99.993L91.921,97.969a16.351,16.351,0,0,0,7.192-11.7l-16.362-.054A5.586,5.586,0,0,1,84.908,90.3" transform="translate(-80.657 -86.212)" fill="#fff"></path>
    </clipPath>
  </defs>
      <path id="Tracé_372" data-name="Tracé 372" d="M175.9,90.491c.249,4.6,2.86,7.585,6.839,7.585,2.611,0,4.911-1.306,5.471-3.42h8.331c-1.865,6.28-6.9,9.823-13.429,9.823-10.2,0-15.294-5.6-15.294-16.662,0-9.45,5.409-15.543,14.8-15.543s14.362,6.093,14.362,18.216Zm12.745-5.1c-.125-4.538-3.109-6.714-6.28-6.714-3.233,0-5.906,2.487-6.217,6.714Z" transform="translate(-128.075 -55.158)" fill="#fff"></path>
      <path id="Tracé_373" data-name="Tracé 373" d="M322.073,99.568c-1.119,2.736-4.414,4.76-8.393,4.76-10.072,0-13.553-8.117-13.553-16.137,0-9.512,5.969-15.916,13.367-15.916a9.336,9.336,0,0,1,8.58,4.6V73.083h8.082v30.9c0,9.2-6.714,14.175-15.232,14.175s-14.8-4.912-14.8-12.807h7.523c0,3.668,2.673,5.844,6.714,5.844,4.29,0,7.709-2.549,7.709-6.59Zm.249-10.445c0-6.652-2.3-9.823-6.9-9.823-4.539,0-6.9,3.046-6.9,9.326,0,5.471,2.922,8.953,6.9,8.953,3.917,0,6.9-3.3,6.9-8.455" transform="translate(-229.046 -55.158)" fill="#fff"></path>
      <path id="Tracé_374" data-name="Tracé 374" d="M458.431,104.284a18.042,18.042,0,0,1-.5-3.347c-1.927,2.114-5.16,3.544-9.263,3.544-6.963,0-10.2-3.42-10.2-8.393,0-8.828,5.906-9.823,14.051-10.942,4.041-.56,5.16-1.368,5.16-3.482,0-1.99-1.989-3.171-5.16-3.171-3.668,0-5.16,1.8-5.533,4.538h-7.523c.124-6.341,3.606-10.756,13.429-10.756,9.7,0,13.056,4.352,13.056,12.061v19.947Zm-.559-15.6c-.808.808-2.238,1.243-5.222,1.8-4.6.87-6.093,2.176-6.093,4.787,0,2.3,1.368,3.42,3.917,3.42a7.032,7.032,0,0,0,7.336-6.653Z" transform="translate(-334.629 -55.159)" fill="#fff"></path>
      <rect id="Rectangle_907" data-name="Rectangle 907" width="8.082" height="42.502" transform="translate(134.869 6.734)" fill="#fff"></rect>
      <path id="Tracé_375" data-name="Tracé 375" d="M615.146,88.378c0-9.7,6.031-16.1,15.73-16.1,9.574,0,15.543,6.341,15.543,16.1,0,9.7-6.031,16.1-15.543,16.1-9.886,0-15.73-6.59-15.73-16.1m23.128,0c0-6.217-2.487-9.263-7.4-9.263s-7.4,3.046-7.4,9.263,2.487,9.326,7.4,9.326,7.4-3.109,7.4-9.326" transform="translate(-469.459 -55.159)" fill="#fff"></path>
  <g id="Groupe_398" data-name="Groupe 398" transform="translate(9.52 12.049)">
    <g id="Groupe_397" data-name="Groupe 397" clip-path="url(#clip-path-2)">
      <rect id="Rectangle_909" data-name="Rectangle 909" width="7.959" height="8.241" transform="matrix(0.573, -0.82, 0.82, 0.573, -2.602, 3.521)" fill="#fff"></rect>
    </g>
  </g>
  <g id="Groupe_400" data-name="Groupe 400" transform="translate(0.127)">
    <g id="Groupe_399" data-name="Groupe 399" clip-path="url(#clip-path-3)">
      <rect id="Rectangle_910" data-name="Rectangle 910" width="25.236" height="24.856" transform="translate(-8.809 12.597) rotate(-55.035)" fill="#fff"></rect>
    </g>
  </g>
  <g id="Groupe_402" data-name="Groupe 402" transform="translate(19.029)">
    <g id="Groupe_401" data-name="Groupe 401" clip-path="url(#clip-path-4)">
      <rect id="Rectangle_911" data-name="Rectangle 911" width="25.999" height="25.979" transform="translate(-8.784 12.561) rotate(-55.035)" fill="#fff"></rect>
    </g>
  </g>
  <g id="Groupe_404" data-name="Groupe 404" transform="translate(20.352 12.049)">
    <g id="Groupe_403" data-name="Groupe 403" clip-path="url(#clip-path-5)">
      <rect id="Rectangle_912" data-name="Rectangle 912" width="7.959" height="8.241" transform="translate(-2.462 3.521) rotate(-55.035)" fill="#fff"></rect>
    </g>
  </g>
  <g id="Groupe_406" data-name="Groupe 406" transform="translate(0 20.354)">
    <g id="Groupe_405" data-name="Groupe 405" clip-path="url(#clip-path-6)">
      <rect id="Rectangle_913" data-name="Rectangle 913" width="33.658" height="30.82" transform="translate(-13.577 19.415) rotate(-55.035)" fill="#fff"></rect>
    </g>
  </g>
  <g id="Groupe_408" data-name="Groupe 408" transform="translate(37.589 20.05)">
    <g id="Groupe_407" data-name="Groupe 407" clip-path="url(#clip-path-7)">
      <rect id="Rectangle_914" data-name="Rectangle 914" width="0.108" height="0.079" transform="translate(-0.058 0.084) rotate(-55.036)" fill="#fff"></rect>
    </g>
  </g>
  <g id="Groupe_410" data-name="Groupe 410" transform="translate(19.102 20.418)">
    <g id="Groupe_409" data-name="Groupe 409" clip-path="url(#clip-path-8)">
      <rect id="Rectangle_915" data-name="Rectangle 915" width="34.72" height="32.376" transform="translate(-13.547 19.372) rotate(-55.035)" fill="#fff"></rect>
    </g>
  </g>
</svg>