<?xml version="1.0" encoding="UTF-8" standalone="no"?>
<!DOCTYPE svg PUBLIC "-//W3C//DTD SVG 1.1//EN" "http://www.w3.org/Graphics/SVG/1.1/DTD/svg11.dtd">
<svg width="100%" height="100%" viewBox="0 0 79 97" version="1.1" xmlns="http://www.w3.org/2000/svg" xmlns:xlink="http://www.w3.org/1999/xlink" xml:space="preserve" xmlns:serif="http://www.serif.com/" style="fill-rule:evenodd;clip-rule:evenodd;stroke-linejoin:round;stroke-miterlimit:2;">
    <path d="M74.3,37C74.3,15.9 58.3,3.8 42.1,3.8L3.9,3.8L3.9,69.1L44.6,69.1C44.5,69.2 75.4,67 74.3,37" style="fill:url(#_Linear1);fill-rule:nonzero;"/>
    <path d="M3.9,87.5L32.3,66.3L3.9,3.8L3.9,87.5" style="fill:url(#_Linear2);fill-rule:nonzero;"/>
    <path d="M47.2,96.7L76.1,96.7L59.4,61.4C47.8,62.4 43.1,60.3 33.7,68.2L47.2,96.7Z" style="fill:url(#_Linear3);"/>
    <path d="M39.2,70.9C42.5,70.7 45.7,70.2 48.7,69.4C53,68.3 57,66.6 60.8,64.5L59.3,61.4C53.3,64.9 46.4,67 39.2,67.4C37.1,67.5 35.3,67.7 33.6,68.1L35.1,71.3C36.5,71.1 37.9,71 39.2,70.9Z" style="fill:url(#_Linear4);"/>
    <path d="M61.7,96.7L48.8,69.4C45.7,70.2 42.5,70.7 39.3,70.9C38,71 36.7,71.1 35.3,71.3L47.3,96.7L61.7,96.7Z" style="fill:url(#_Linear5);"/>
    <path d="M70.4,21.1C70.4,21.1 83.4,51.5 51.9,54.1C39.9,55.1 29.6,55.8 18.9,61.4C11.9,65.1 3.6,74.2 3.6,85L3.6,96.7L26.7,96.7C26.7,81.2 30.3,75.6 42.5,72.6C57.3,69.2 76.5,58.1 74.4,35.9C74,31.4 72.9,25.9 70.4,21.1Z" style="fill:url(#_Linear6);"/>
    <path d="M39.7,73.4L39.6,43.2C43.7,44.8 44.8,47.8 45,50.3C45.1,51 45.6,51.5 46.3,51.5L46.4,51.5C47.1,51.4 47.7,50.8 47.6,50.1C47.4,48 46.6,44.7 43.5,42.4L77.9,42.5L77.9,39.2L42.4,39C45.2,38.6 47.9,38 50,37.2C52.7,36.2 54.4,35 55.2,33.7C56.8,31 56.7,28.1 55,26C53.4,24.1 50.8,23.4 48.3,24.3C47.9,24.4 47.5,24.6 47.2,24.8C44.6,26.3 41.8,30.9 39.6,35.3L39.5,3.8L39.5,0.1L37.8,2L36.2,0.3L36.2,3.6L36.3,36.5C34.1,31.9 31,26.5 28.2,24.9C27.8,24.7 27.5,24.5 27.1,24.4C24.6,23.5 22,24.1 20.4,26.1C18.7,28.2 18.6,31.1 20.2,33.8C21,35.1 22.8,36.3 25.4,37.3C27.5,38.1 30.1,38.7 32.8,39.1L0.5,38.9C0.8,40 1.2,41.1 1.8,42.2L32,42.3C29.4,44.9 28.6,48.7 27.9,53.2C27.8,53.9 28.3,54.6 29,54.7L29.2,54.7C29.8,54.7 30.4,54.2 30.5,53.6C31.4,48 32.3,44.2 36.3,42.5L36.4,73.6L36.4,74.6C36.4,74.7 38.6,73.7 39.7,73.4ZM48.5,27.2C48.7,27.1 49,26.9 49.2,26.9C50.7,26.4 52.1,26.7 53,27.8C54,29 54,30.8 52.9,32.5C52.7,32.9 51.8,33.9 49,34.9C47,35.6 44.6,36.2 41.9,36.6C44.5,31.4 46.8,28.1 48.5,27.2ZM22.4,32.4C21.4,30.7 21.3,28.9 22.3,27.7C23.2,26.6 24.7,26.3 26.1,26.8C26.3,26.9 26.6,27 26.8,27.1C28.4,28 30.8,31.4 33.3,36.4C30.6,36 28.2,35.5 26.2,34.7C23.4,33.7 22.6,32.7 22.4,32.4Z" style="fill:white;fill-rule:nonzero;"/>
    <defs>
        <linearGradient id="_Linear1" x1="0" y1="0" x2="1" y2="0" gradientUnits="userSpaceOnUse" gradientTransform="matrix(64.65,-49.978,49.978,64.65,8.789,52.13)"><stop offset="0" style="stop-color:rgb(175,17,14);stop-opacity:1"/><stop offset="0.3" style="stop-color:rgb(175,17,14);stop-opacity:1"/><stop offset="0.94" style="stop-color:rgb(231,63,71);stop-opacity:1"/><stop offset="1" style="stop-color:rgb(231,63,71);stop-opacity:1"/></linearGradient>
        <linearGradient id="_Linear2" x1="0" y1="0" x2="1" y2="0" gradientUnits="userSpaceOnUse" gradientTransform="matrix(6.717e-15,-109.697,109.697,6.717e-15,18.107,98.272)"><stop offset="0" style="stop-color:rgb(175,17,14);stop-opacity:1"/><stop offset="0.29" style="stop-color:rgb(175,17,14);stop-opacity:1"/><stop offset="0.31" style="stop-color:rgb(177,19,16);stop-opacity:1"/><stop offset="0.73" style="stop-color:rgb(216,51,56);stop-opacity:1"/><stop offset="0.94" style="stop-color:rgb(231,63,71);stop-opacity:1"/><stop offset="1" style="stop-color:rgb(231,63,71);stop-opacity:1"/></linearGradient>
        <linearGradient id="_Linear3" x1="0" y1="0" x2="1" y2="0" gradientUnits="userSpaceOnUse" gradientTransform="matrix(48.5392,53.193,-53.193,48.5392,27.8867,51.199)"><stop offset="0" style="stop-color:rgb(175,17,14);stop-opacity:1"/><stop offset="0.28" style="stop-color:rgb(175,17,14);stop-opacity:1"/><stop offset="0.76" style="stop-color:rgb(231,63,71);stop-opacity:1"/><stop offset="1" style="stop-color:rgb(231,63,71);stop-opacity:1"/></linearGradient>
        <linearGradient id="_Linear4" x1="0" y1="0" x2="1" y2="0" gradientUnits="userSpaceOnUse" gradientTransform="matrix(49.5357,54.285,-54.285,49.5357,41.0741,59.527)"><stop offset="0" style="stop-color:rgb(175,17,14);stop-opacity:1"/><stop offset="0.28" style="stop-color:rgb(175,17,14);stop-opacity:1"/><stop offset="0.76" style="stop-color:rgb(231,63,71);stop-opacity:1"/><stop offset="1" style="stop-color:rgb(231,63,71);stop-opacity:1"/></linearGradient>
        <linearGradient id="_Linear5" x1="0" y1="0" x2="1" y2="0" gradientUnits="userSpaceOnUse" gradientTransform="matrix(48.396,53.036,-53.036,48.396,26.7621,59.687)"><stop offset="0" style="stop-color:rgb(175,17,14);stop-opacity:1"/><stop offset="0.28" style="stop-color:rgb(175,17,14);stop-opacity:1"/><stop offset="0.76" style="stop-color:rgb(231,63,71);stop-opacity:1"/><stop offset="1" style="stop-color:rgb(231,63,71);stop-opacity:1"/></linearGradient>
        <linearGradient id="_Linear6" x1="0" y1="0" x2="1" y2="0" gradientUnits="userSpaceOnUse" gradientTransform="matrix(42.517,-60.8,60.8,42.517,19.463,91.206)"><stop offset="0" style="stop-color:rgb(220,100,17);stop-opacity:1"/><stop offset="0.51" style="stop-color:rgb(249,180,64);stop-opacity:1"/><stop offset="1" style="stop-color:rgb(219,101,17);stop-opacity:1"/></linearGradient>
    </defs>
</svg>
