<svg fill="none" xmlns="http://www.w3.org/2000/svg" xmlns:xlink="http://www.w3.org/1999/xlink" id="trash" viewBox="0 0 26.718 28.639">
        <defs>
        <clipPath id="clip-path">
            <rect id="Rectangle_814" width="26.717" height="28.639"/>
        </clipPath>
        </defs>
        <path fill="#000" id="Tracé_293" d="M25.606,2.114H18.183L16.5.345a1.112,1.112,0,0,0-.8-.345H11.574a1.111,1.111,0,0,0-.7.248l-2.3,1.866H1.112a1.112,1.112,0,1,0,0,2.224h.736L5.4,27.694a1.112,1.112,0,0,0,1.1.944H20.827a1.112,1.112,0,0,0,1.1-.973L24.873,4.338h.732a1.112,1.112,0,0,0,0-2.224m-5.759,24.3H17.624l.02-.31a.89.89,0,0,0-1.775-.116l-.028.426H10.876l-.028-.425a.89.89,0,0,0-1.775.115l.02.31H7.458L4.1,4.338H7.665l.028.425a.889.889,0,0,0,.887.832l.059,0a.889.889,0,0,0,.83-.945l-.027-.42a1.108,1.108,0,0,0,.227-.138l2.3-1.866h3.247L16.9,3.993a1.109,1.109,0,0,0,.373.257l-.026.4a.889.889,0,0,0,.83.945l.059,0a.889.889,0,0,0,.887-.832l.028-.425h3.58Z" transform="translate(0 0)"/>
        <path fill="#000" id="Tracé_294" d="M59.388,115.161a.889.889,0,1,0-1.775.115l.212,3.283a.89.89,0,0,0,.887.832l.058,0a.889.889,0,0,0,.83-.945Z" transform="translate(-49.07 -97.379)"/>
        <path fill="#000" id="Tracé_295" d="M55.189,64.02a.889.889,0,0,0,.83-.945l-.212-3.283a.889.889,0,1,0-1.775.115l.212,3.283a.89.89,0,0,0,.887.832l.058,0" transform="translate(-46.019 -50.218)"/>
        <path fill="#000" id="Tracé_296" d="M110.335,114.331a.888.888,0,0,0-.945.83l-.212,3.283a.89.89,0,0,0,.83.945l.058,0a.89.89,0,0,0,.887-.832l.212-3.283a.889.889,0,0,0-.83-.945" transform="translate(-92.99 -97.38)"/>
        <path fill="#000" id="Tracé_297" d="M113.917,58.961a.889.889,0,0,0-.945.83l-.212,3.283a.89.89,0,0,0,.83.945l.058,0a.89.89,0,0,0,.887-.832l.212-3.283a.89.89,0,0,0-.83-.945" transform="translate(-96.041 -50.219)"/>
</svg>