<svg xmlns="http://www.w3.org/2000/svg" fill="none" viewBox="0 0 27 27" id="user">
        <path d="M18.2 16c-1.5 0-2.2.8-4.7.8s-3.2-.8-4.7-.8c-3.9 0-7.1 3.2-7.1 7.1v1.4c0 1.4 1.1 2.5 2.5 2.5h18.6c1.4 0 2.5-1.1 2.5-2.5v-1.4c0-3.9-3.2-7.1-7.1-7.1zm4.6 8.5H4.2v-1.4c0-2.5 2-4.6 4.6-4.6.8 0 2 .8 4.7.8s3.9-.8 4.7-.8c2.5 0 4.6 2 4.6 4.6v1.4zm-9.3-9.3c4.2 0 7.6-3.4 7.6-7.6S17.7 0 13.5 0 5.9 3.4 5.9 7.6s3.4 7.6 7.6 7.6zm0-12.7c2.8 0 5.1 2.3 5.1 5.1s-2.3 5.1-5.1 5.1-5.1-2.3-5.1-5.1 2.3-5.1 5.1-5.1z"/>
</svg>